<?xml version="1.0" encoding="UTF-8"?>
<svg id="Layer_1" xmlns="http://www.w3.org/2000/svg" version="1.1" viewBox="0 0 313.8 96.4">
  
  <defs>
    <style>
      .st0 {
        fill: #00bf6f;
      }

      .st1 {
        fill: #fff;
      }
    </style>
  </defs>
  <g>
    <path class="st1" d="M137.3,25.6h-19.4c-.9,0-1.7.8-1.7,1.7v25.8c0,2.1-1.8,3.9-4,3.9h0c-2.2,0-3.9-1.7-3.9-3.9v-25.8c0-.9-.8-1.7-1.7-1.7h-19.7c-.9,0-1.7.8-1.7,1.7v23.1c0,6.5,5.4,11.9,12.1,11.9h29.7c6.6,0,12.1-5.3,12.1-11.9v-23.1c0-.9-.8-1.7-1.7-1.7Z"/>
    <rect class="st1" x="143.8" y="25.6" width="22.9" height="35.9" rx="1.7" ry="1.7"/>
    <path class="st1" d="M283.8,25.6h-18.9c-1.1,0-2.2.6-2.8,1.5l-9.5,14.2v-14c0-.9-.8-1.7-1.7-1.7h-19.4c-.9,0-1.7.8-1.7,1.7v32.5c0,.9.8,1.7,1.7,1.7h19.4c.9,0,1.7-.8,1.7-1.7v-13.2c1.4,0,2.9,0,3.9,0,2.1,0,3.9,1.7,3.9,3.9v9.3c0,.9.8,1.7,1.7,1.7h19c.9,0,1.7-.8,1.7-1.7v-9.3c0-5.1-3.2-7.7-7.7-8.6l9.7-14.6c.5-.8,0-1.8-.9-1.8Z"/>
    <path class="st1" d="M225.4,36.2h0c0-6.5-5.4-10.6-12-10.6h-39.7c-.9,0-1.7.8-1.7,1.7v32.5c0,.9.8,1.7,1.7,1.7h19.4c.9,0,1.7-.8,1.7-1.7v-13.2h4c2.1,0,3.8,1.8,3.8,3.9v9.3c0,.9.8,1.7,1.7,1.7h19c.9,0,1.7-.8,1.7-1.7v-9.3c0-3.1-1.2-5.3-3.2-6.7,2.1-1.8,3.5-4.4,3.5-7.6ZM198.7,30.7c2.1,0,3.9,2.1,3.9,4.2v2.5c0,2-1.7,4.1-3.7,4.2h-4v-10.9h3.9Z"/>
    <path class="st1" d="M80.8,49.9v-12.6c0-6.7-5.5-12.2-12.2-12.2h-29.6c-6.7,0-12.2,5.5-12.2,12.2v12.8c0,6.7,5.5,11.9,12.2,11.9h3.8c0,5.9,4.5,9.9,10.8,9.9h25.5c.9,0,1.7-.8,1.7-1.7v-1.7c0-.9-.8-1.7-1.7-1.7-2.9,0-8.6,0-10.2,0-2.7,0-3.8-2.2-3.8-4.7h3.5c6.7,0,12.2-5.5,12.2-12.2ZM50,34.6c0-2.1,1.8-3.9,3.9-3.9h0c2.1,0,3.9,1.8,3.9,3.9v18.1c0,2.1-1.8,3.9-3.9,3.9h0c-2.1,0-3.9-1.8-3.9-3.9v-18.1Z"/>
  </g>
  <path class="st0" d="M86.8,66.8h194.3c.9,0,1.7.8,1.7,1.7v1.7c0,.9-.8,1.7-1.7,1.7H86.8c-.9,0-1.7-.8-1.7-1.7v-1.7c0-.9.8-1.7,1.7-1.7Z"/>
</svg>